<?xml version="1.0" encoding="UTF-8" standalone="no"?>
<svg width="33px" height="33px" viewBox="0 0 33 33" version="1.1" xmlns="http://www.w3.org/2000/svg" xmlns:xlink="http://www.w3.org/1999/xlink" xmlns:sketch="http://www.bohemiancoding.com/sketch/ns">
    <!-- Generator: Sketch 3.1 (8751) - http://www.bohemiancoding.com/sketch -->
    <title>dashboard</title>
    <desc>Created with Sketch.</desc>
    <defs></defs>
    <g id="Welcome" stroke="none" stroke-width="1" fill="none" fill-rule="evenodd" sketch:type="MSPage">
        <g id="Desktop-HD" sketch:type="MSArtboardGroup" transform="translate(-45.000000, -536.000000)" fill="#1B272E">
            <g id="side-menu" sketch:type="MSLayerGroup" transform="translate(0.000000, 512.000000)">
                <g id="DASHBOARD-LOGO" transform="translate(45.000000, 24.000000)" sketch:type="MSShapeGroup">
                    <g id="dashboard">
                        <path d="M0,16.5 C0,25.608 7.392,33 16.5,33 C25.608,33 33,25.608 33,16.5 C33,7.392 25.608,0 16.5,0 C7.392,0 0,7.392 0,16.5 L0,16.5 Z M2.068,16.5 C2.068,8.536 8.536,2.068 16.5,2.068 C24.464,2.068 30.932,8.536 30.932,16.5 C30.932,24.464 24.464,30.932 16.5,30.932 C8.536,30.932 2.068,24.464 2.068,16.5 L2.068,16.5 Z" id="Shape"></path>
                        <circle id="Oval" cx="16.5" cy="23.1" r="3.3"></circle>
                        <rect id="Rectangle" x="15.4" y="13.2" width="2.2" height="11"></rect>
                        <rect id="Rectangle" x="15.4" y="4.4" width="2.2" height="2.2"></rect>
                        <rect id="Rectangle" x="26.4" y="13.2" width="2.2" height="2.2"></rect>
                        <rect id="Rectangle" x="8.8" y="6.6" width="2.2" height="2.2"></rect>
                        <rect id="Rectangle" x="4.4" y="13.2" width="2.2" height="2.2"></rect>
                        <rect id="Rectangle" x="22" y="6.6" width="2.2" height="2.2"></rect>
                    </g>
                </g>
            </g>
        </g>
    </g>
</svg>