<?xml version="1.0" encoding="UTF-8" standalone="no"?>
<svg width="33px" height="33px" viewBox="0 0 33 33" version="1.1" xmlns="http://www.w3.org/2000/svg" xmlns:xlink="http://www.w3.org/1999/xlink" xmlns:sketch="http://www.bohemiancoding.com/sketch/ns">
    <!-- Generator: Sketch 3.1 (8751) - http://www.bohemiancoding.com/sketch -->
    <title>SETTINGSLOGO</title>
    <desc>Created with Sketch.</desc>
    <defs></defs>
    <g id="Welcome" stroke="none" stroke-width="1" fill="none" fill-rule="evenodd" sketch:type="MSPage">
        <g id="Desktop-HD" sketch:type="MSArtboardGroup" transform="translate(-45.000000, -947.000000)" fill="#EEEEEE">
            <g id="side-menu" sketch:type="MSLayerGroup" transform="translate(0.000000, 512.000000)">
                <g id="SETTINGSLOGO" transform="translate(45.000000, 435.000000)" sketch:type="MSShapeGroup">
                    <path d="M12.2993723,17.2800654 L3.02344872,26.5502473 C1.98097107,27.5968807 1.91714591,29.2202305 2.8957984,30.2027843 L5.00202876,32.3174111 C5.98068125,33.278605 7.59758536,33.2145254 8.64006302,32.1892519 L17.9372617,22.8977102 C18.9797393,21.8510767 19.0222894,20.2277269 18.064912,19.2451731 L17.9372617,19.1383737 L27.489761,9.59051364 L28.9151896,10.0390708 L33,4.07966821 L31.1277952,2.2 L25.1707801,6.27973441 L25.5962812,7.7322053 L16.0650569,17.2587055 L15.9586816,17.1519062 C14.9800291,16.1693524 13.34185,16.233432 12.2993723,17.2800654 L12.2993723,17.2800654 Z" id="Shape"></path>
                    <path d="M17.5509029,13.1929946 L18.4770764,12.2410469 L18.0580931,11.8204189 C18.8519562,8.80960788 18.1021966,5.44458376 15.764711,2.9650923 C12.9200351,-0.00144211728 8.64199535,-0.776283197 5.1798704,0.795537279 L10.4061355,6.10873326 C11.0015327,6.72860612 11.0235845,7.70269205 10.4281872,8.3004266 L8.28916733,10.425705 C7.7158218,11.0234395 6.72349299,11.0013012 6.1280957,10.4035667 L0.791571893,5.17892396 C-0.774102448,8.65463966 -0.00229115283,12.9273348 2.97469527,15.7610393 C4.45216261,17.1557532 6.23835446,17.9970093 8.09070157,18.2626691 L13.5815876,12.7945049 C14.5739164,13.7685908 16.1616425,13.7685908 17.1539713,12.7945049 L17.5509029,13.1929946 L17.5509029,13.1929946 Z M20.373527,26.3874312 L26.2613446,32.1433935 C27.4962427,33.3388626 29.5250038,33.2724477 30.7819536,32.0105636 L31.9948,30.7929562 C33.2738015,29.5089339 33.3399568,27.4943471 32.1491622,26.2546013 L24.2325835,18.1519775 L23.3725652,19.0153718 L23.7915485,19.4138615 C22.7992197,20.3879474 22.7992197,22.0040446 23.7915485,22.9781305 L20.373527,26.3874312 L20.373527,26.3874312 Z" id="Shape"></path>
                </g>
            </g>
        </g>
    </g>
</svg>